STARTFONT 2.1
COMMENT Created by fdbbdf
FONT times8
SIZE 8 78 78
FONTBOUNDINGBOX 11 11 -1 -4
STARTPROPERTIES 4
Ownership "  Copyright (c) 1984 Adobe Systems, Inc.  /adobe/fonttools/bitmaps/stdfontvec.ps TM10.bits  TOTAL BITMAP BYTES 876  GUIDELINES -2 0 5 7 DONE  WIDTHERR -25 -48  "
FONT_ASCENT 7
FONT_DESCENT 4
DEFAULT_CHAR 32
ENDPROPERTIES
CHARS 95
STARTCHAR sp
ENCODING -1 32
SWIDTH 0 0
DWIDTH 3 0
BBX 0 0 0 0
BITMAP
ENDCHAR
STARTCHAR !
ENCODING -1 33
SWIDTH 0 0
DWIDTH 3 0
BBX 1 7 1 -1
BITMAP
8000
8000
8000
8000
8000
0000
8000
ENDCHAR
STARTCHAR "
ENCODING -1 34
SWIDTH 0 0
DWIDTH 4 0
BBX 3 2 0 4
BITMAP
a000
a000
ENDCHAR
STARTCHAR #
ENCODING -1 35
SWIDTH 0 0
DWIDTH 5 0
BBX 5 7 0 -1
BITMAP
5000
5000
f800
5000
f800
5000
5000
ENDCHAR
STARTCHAR $
ENCODING -1 36
SWIDTH 0 0
DWIDTH 5 0
BBX 4 9 0 -2
BITMAP
2000
6000
9000
8000
6000
1000
9000
6000
4000
ENDCHAR
STARTCHAR %
ENCODING -1 37
SWIDTH 0 0
DWIDTH 8 0
BBX 7 7 0 -1
BITMAP
7e00
a400
4800
1000
2400
4a00
8400
ENDCHAR
STARTCHAR &
ENCODING -1 38
SWIDTH 0 0
DWIDTH 8 0
BBX 8 7 0 -1
BITMAP
3000
5000
2600
5400
8800
8c00
7300
ENDCHAR
STARTCHAR '
ENCODING -1 39
SWIDTH 0 0
DWIDTH 3 0
BBX 2 2 0 4
BITMAP
c000
4000
ENDCHAR
STARTCHAR (
ENCODING -1 40
SWIDTH 0 0
DWIDTH 4 0
BBX 3 9 0 -3
BITMAP
2000
4000
4000
8000
8000
8000
4000
4000
2000
ENDCHAR
STARTCHAR )
ENCODING -1 41
SWIDTH 0 0
DWIDTH 4 0
BBX 3 9 0 -3
BITMAP
8000
4000
4000
2000
2000
2000
4000
4000
8000
ENDCHAR
STARTCHAR *
ENCODING -1 42
SWIDTH 0 0
DWIDTH 5 0
BBX 3 3 1 3
BITMAP
a000
4000
a000
ENDCHAR
STARTCHAR +
ENCODING -1 43
SWIDTH 0 0
DWIDTH 6 0
BBX 5 5 0 0
BITMAP
2000
2000
f800
2000
2000
ENDCHAR
STARTCHAR ,
ENCODING -1 44
SWIDTH 0 0
DWIDTH 3 0
BBX 1 3 1 -3
BITMAP
8000
8000
8000
ENDCHAR
STARTCHAR -
ENCODING -1 45
SWIDTH 0 0
DWIDTH 4 0
BBX 3 1 0 2
BITMAP
e000
ENDCHAR
STARTCHAR .
ENCODING -1 46
SWIDTH 0 0
DWIDTH 3 0
BBX 1 1 1 -1
BITMAP
8000
ENDCHAR
STARTCHAR /
ENCODING -1 47
SWIDTH 0 0
DWIDTH 3 0
BBX 3 7 0 -1
BITMAP
2000
2000
4000
4000
4000
8000
8000
ENDCHAR
STARTCHAR 0
ENCODING -1 48
SWIDTH 0 0
DWIDTH 5 0
BBX 4 7 0 -1
BITMAP
6000
9000
9000
9000
9000
9000
6000
ENDCHAR
STARTCHAR 1
ENCODING -1 49
SWIDTH 0 0
DWIDTH 5 0
BBX 3 7 1 -1
BITMAP
4000
c000
4000
4000
4000
4000
e000
ENDCHAR
STARTCHAR 2
ENCODING -1 50
SWIDTH 0 0
DWIDTH 5 0
BBX 4 7 0 -1
BITMAP
6000
9000
1000
2000
4000
8000
f000
ENDCHAR
STARTCHAR 3
ENCODING -1 51
SWIDTH 0 0
DWIDTH 5 0
BBX 4 7 0 -1
BITMAP
6000
9000
1000
6000
1000
9000
6000
ENDCHAR
STARTCHAR 4
ENCODING -1 52
SWIDTH 0 0
DWIDTH 6 0
BBX 5 7 0 -1
BITMAP
1000
3000
5000
9000
f800
1000
1000
ENDCHAR
STARTCHAR 5
ENCODING -1 53
SWIDTH 0 0
DWIDTH 5 0
BBX 4 7 0 -1
BITMAP
7000
4000
e000
1000
1000
1000
e000
ENDCHAR
STARTCHAR 6
ENCODING -1 54
SWIDTH 0 0
DWIDTH 5 0
BBX 4 7 0 -1
BITMAP
3000
4000
e000
9000
9000
9000
6000
ENDCHAR
STARTCHAR 7
ENCODING -1 55
SWIDTH 0 0
DWIDTH 5 0
BBX 4 7 0 -1
BITMAP
f000
9000
2000
2000
4000
4000
4000
ENDCHAR
STARTCHAR 8
ENCODING -1 56
SWIDTH 0 0
DWIDTH 5 0
BBX 4 7 0 -1
BITMAP
6000
9000
9000
6000
9000
9000
6000
ENDCHAR
STARTCHAR 9
ENCODING -1 57
SWIDTH 0 0
DWIDTH 5 0
BBX 4 7 0 -1
BITMAP
6000
9000
9000
9000
7000
2000
c000
ENDCHAR
STARTCHAR :
ENCODING -1 58
SWIDTH 0 0
DWIDTH 3 0
BBX 1 5 1 -1
BITMAP
8000
0000
0000
0000
8000
ENDCHAR
STARTCHAR ;
ENCODING -1 59
SWIDTH 0 0
DWIDTH 3 0
BBX 1 7 1 -3
BITMAP
8000
0000
0000
0000
8000
8000
8000
ENDCHAR
STARTCHAR <
ENCODING -1 60
SWIDTH 0 0
DWIDTH 5 0
BBX 3 5 1 0
BITMAP
2000
4000
8000
4000
2000
ENDCHAR
STARTCHAR =
ENCODING -1 61
SWIDTH 0 0
DWIDTH 6 0
BBX 5 3 0 1
BITMAP
f800
0000
f800
ENDCHAR
STARTCHAR >
ENCODING -1 62
SWIDTH 0 0
DWIDTH 5 0
BBX 3 5 1 0
BITMAP
8000
4000
2000
4000
8000
ENDCHAR
STARTCHAR ?
ENCODING -1 63
SWIDTH 0 0
DWIDTH 4 0
BBX 3 7 0 -1
BITMAP
e000
a000
2000
4000
4000
0000
4000
ENDCHAR
STARTCHAR @
ENCODING -1 64
SWIDTH 0 0
DWIDTH 9 0
BBX 8 9 0 -3
BITMAP
3c00
4200
9d00
a500
a500
ad00
9200
4000
3e00
ENDCHAR
STARTCHAR A
ENCODING -1 65
SWIDTH 0 0
DWIDTH 8 0
BBX 7 7 0 -1
BITMAP
1000
1000
2800
2800
7c00
4400
ee00
ENDCHAR
STARTCHAR B
ENCODING -1 66
SWIDTH 0 0
DWIDTH 6 0
BBX 5 7 0 -1
BITMAP
f000
4800
4800
7000
4800
4800
f000
ENDCHAR
STARTCHAR C
ENCODING -1 67
SWIDTH 0 0
DWIDTH 7 0
BBX 6 7 0 -1
BITMAP
3c00
4400
8000
8000
8000
4400
3800
ENDCHAR
STARTCHAR D
ENCODING -1 68
SWIDTH 0 0
DWIDTH 7 0
BBX 6 7 0 -1
BITMAP
f000
4800
4400
4400
4400
4800
f000
ENDCHAR
STARTCHAR E
ENCODING -1 69
SWIDTH 0 0
DWIDTH 6 0
BBX 5 7 0 -1
BITMAP
f800
4800
4000
7000
4000
4800
f800
ENDCHAR
STARTCHAR F
ENCODING -1 70
SWIDTH 0 0
DWIDTH 6 0
BBX 5 7 0 -1
BITMAP
f800
4800
4000
7000
4000
4000
e000
ENDCHAR
STARTCHAR G
ENCODING -1 71
SWIDTH 0 0
DWIDTH 7 0
BBX 6 7 0 -1
BITMAP
3c00
4400
8000
9c00
8400
4400
3c00
ENDCHAR
STARTCHAR H
ENCODING -1 72
SWIDTH 0 0
DWIDTH 8 0
BBX 7 7 0 -1
BITMAP
ee00
4400
4400
7c00
4400
4400
ee00
ENDCHAR
STARTCHAR I
ENCODING -1 73
SWIDTH 0 0
DWIDTH 4 0
BBX 3 7 0 -1
BITMAP
e000
4000
4000
4000
4000
4000
e000
ENDCHAR
STARTCHAR J
ENCODING -1 74
SWIDTH 0 0
DWIDTH 5 0
BBX 4 7 0 -1
BITMAP
7000
2000
2000
2000
2000
a000
c000
ENDCHAR
STARTCHAR K
ENCODING -1 75
SWIDTH 0 0
DWIDTH 7 0
BBX 6 7 0 -1
BITMAP
ec00
4800
5000
6000
5000
4800
ec00
ENDCHAR
STARTCHAR L
ENCODING -1 76
SWIDTH 0 0
DWIDTH 6 0
BBX 5 7 0 -1
BITMAP
e000
4000
4000
4000
4000
4800
f800
ENDCHAR
STARTCHAR M
ENCODING -1 77
SWIDTH 0 0
DWIDTH 10 0
BBX 9 7 0 -1
BITMAP
e380
6300
5500
5500
4900
4900
eb80
ENDCHAR
STARTCHAR N
ENCODING -1 78
SWIDTH 0 0
DWIDTH 8 0
BBX 7 7 0 -1
BITMAP
ce00
6400
5400
5400
4c00
4c00
e400
ENDCHAR
STARTCHAR O
ENCODING -1 79
SWIDTH 0 0
DWIDTH 7 0
BBX 6 7 0 -1
BITMAP
3000
4800
8400
8400
8400
4800
3000
ENDCHAR
STARTCHAR P
ENCODING -1 80
SWIDTH 0 0
DWIDTH 6 0
BBX 5 7 0 -1
BITMAP
f000
4800
4800
4800
7000
4000
e000
ENDCHAR
STARTCHAR Q
ENCODING -1 81
SWIDTH 0 0
DWIDTH 7 0
BBX 6 9 0 -3
BITMAP
3000
4800
8400
8400
8400
4800
3000
1000
0c00
ENDCHAR
STARTCHAR R
ENCODING -1 82
SWIDTH 0 0
DWIDTH 7 0
BBX 6 7 0 -1
BITMAP
f000
4800
4800
7000
5000
4800
ec00
ENDCHAR
STARTCHAR S
ENCODING -1 83
SWIDTH 0 0
DWIDTH 5 0
BBX 4 7 0 -1
BITMAP
7000
9000
4000
2000
1000
9000
e000
ENDCHAR
STARTCHAR T
ENCODING -1 84
SWIDTH 0 0
DWIDTH 6 0
BBX 5 7 0 -1
BITMAP
f800
a800
2000
2000
2000
2000
7000
ENDCHAR
STARTCHAR U
ENCODING -1 85
SWIDTH 0 0
DWIDTH 8 0
BBX 7 7 0 -1
BITMAP
ee00
4400
4400
4400
4400
4400
3800
ENDCHAR
STARTCHAR V
ENCODING -1 86
SWIDTH 0 0
DWIDTH 8 0
BBX 7 7 0 -1
BITMAP
ee00
4400
4400
2800
2800
1000
1000
ENDCHAR
STARTCHAR W
ENCODING -1 87
SWIDTH 0 0
DWIDTH 10 0
BBX 11 7 -1 -1
BITMAP
eee0
4440
4440
2480
2a80
1100
1100
ENDCHAR
STARTCHAR X
ENCODING -1 88
SWIDTH 0 0
DWIDTH 8 0
BBX 7 7 0 -1
BITMAP
ee00
4400
2800
1000
2800
4400
ee00
ENDCHAR
STARTCHAR Y
ENCODING -1 89
SWIDTH 0 0
DWIDTH 8 0
BBX 7 7 0 -1
BITMAP
ee00
4400
2800
1000
1000
1000
3800
ENDCHAR
STARTCHAR Z
ENCODING -1 90
SWIDTH 0 0
DWIDTH 6 0
BBX 5 7 0 -1
BITMAP
f800
8800
1000
2000
4000
8800
f800
ENDCHAR
STARTCHAR [
ENCODING -1 91
SWIDTH 0 0
DWIDTH 4 0
BBX 2 9 1 -3
BITMAP
c000
8000
8000
8000
8000
8000
8000
8000
c000
ENDCHAR
STARTCHAR \
ENCODING -1 92
SWIDTH 0 0
DWIDTH 3 0
BBX 3 7 0 -1
BITMAP
8000
8000
4000
4000
4000
2000
2000
ENDCHAR
STARTCHAR ]
ENCODING -1 93
SWIDTH 0 0
DWIDTH 3 0
BBX 2 9 0 -3
BITMAP
c000
4000
4000
4000
4000
4000
4000
4000
c000
ENDCHAR
STARTCHAR ^
ENCODING -1 94
SWIDTH 0 0
DWIDTH 5 0
BBX 3 3 1 3
BITMAP
4000
a000
a000
ENDCHAR
STARTCHAR _
ENCODING -1 95
SWIDTH 0 0
DWIDTH 5 0
BBX 5 1 0 -4
BITMAP
f800
ENDCHAR
STARTCHAR `
ENCODING -1 96
SWIDTH 0 0
DWIDTH 3 0
BBX 2 2 0 4
BITMAP
8000
c000
ENDCHAR
STARTCHAR a
ENCODING -1 97
SWIDTH 0 0
DWIDTH 4 0
BBX 3 5 0 -1
BITMAP
c000
2000
6000
a000
e000
ENDCHAR
STARTCHAR b
ENCODING -1 98
SWIDTH 0 0
DWIDTH 5 0
BBX 5 7 -1 -1
BITMAP
c000
4000
7000
4800
4800
4800
7000
ENDCHAR
STARTCHAR c
ENCODING -1 99
SWIDTH 0 0
DWIDTH 4 0
BBX 3 5 0 -1
BITMAP
6000
8000
8000
8000
6000
ENDCHAR
STARTCHAR d
ENCODING -1 100
SWIDTH 0 0
DWIDTH 6 0
BBX 5 7 0 -1
BITMAP
3000
1000
7000
9000
9000
9000
6800
ENDCHAR
STARTCHAR e
ENCODING -1 101
SWIDTH 0 0
DWIDTH 4 0
BBX 3 5 0 -1
BITMAP
6000
a000
c000
8000
6000
ENDCHAR
STARTCHAR f
ENCODING -1 102
SWIDTH 0 0
DWIDTH 4 0
BBX 4 7 0 -1
BITMAP
3000
4000
e000
4000
4000
4000
e000
ENDCHAR
STARTCHAR g
ENCODING -1 103
SWIDTH 0 0
DWIDTH 5 0
BBX 4 7 0 -3
BITMAP
7000
a000
a000
c000
6000
9000
e000
ENDCHAR
STARTCHAR h
ENCODING -1 104
SWIDTH 0 0
DWIDTH 6 0
BBX 6 7 -1 -1
BITMAP
c000
4000
7000
4800
4800
4800
6c00
ENDCHAR
STARTCHAR i
ENCODING -1 105
SWIDTH 0 0
DWIDTH 4 0
BBX 3 7 0 -1
BITMAP
4000
0000
c000
4000
4000
4000
e000
ENDCHAR
STARTCHAR j
ENCODING -1 106
SWIDTH 0 0
DWIDTH 3 0
BBX 3 9 -1 -3
BITMAP
2000
0000
6000
2000
2000
2000
2000
2000
c000
ENDCHAR
STARTCHAR k
ENCODING -1 107
SWIDTH 0 0
DWIDTH 6 0
BBX 6 7 -1 -1
BITMAP
c000
4000
4800
5000
7000
4800
cc00
ENDCHAR
STARTCHAR l
ENCODING -1 108
SWIDTH 0 0
DWIDTH 4 0
BBX 3 7 0 -1
BITMAP
c000
4000
4000
4000
4000
4000
e000
ENDCHAR
STARTCHAR m
ENCODING -1 109
SWIDTH 0 0
DWIDTH 9 0
BBX 8 5 0 -1
BITMAP
ec00
9200
9200
9200
db00
ENDCHAR
STARTCHAR n
ENCODING -1 110
SWIDTH 0 0
DWIDTH 6 0
BBX 5 5 0 -1
BITMAP
e000
9000
9000
9000
d800
ENDCHAR
STARTCHAR o
ENCODING -1 111
SWIDTH 0 0
DWIDTH 5 0
BBX 4 5 0 -1
BITMAP
6000
9000
9000
9000
6000
ENDCHAR
STARTCHAR p
ENCODING -1 112
SWIDTH 0 0
DWIDTH 5 0
BBX 5 7 -1 -3
BITMAP
f000
4800
4800
4800
7000
4000
e000
ENDCHAR
STARTCHAR q
ENCODING -1 113
SWIDTH 0 0
DWIDTH 5 0
BBX 5 7 0 -3
BITMAP
7000
9000
9000
9000
7000
1000
3800
ENDCHAR
STARTCHAR r
ENCODING -1 114
SWIDTH 0 0
DWIDTH 4 0
BBX 3 5 0 -1
BITMAP
a000
6000
4000
4000
e000
ENDCHAR
STARTCHAR s
ENCODING -1 115
SWIDTH 0 0
DWIDTH 4 0
BBX 3 5 0 -1
BITMAP
6000
8000
4000
2000
c000
ENDCHAR
STARTCHAR t
ENCODING -1 116
SWIDTH 0 0
DWIDTH 4 0
BBX 4 6 0 -1
BITMAP
4000
e000
4000
4000
4000
6000
ENDCHAR
STARTCHAR u
ENCODING -1 117
SWIDTH 0 0
DWIDTH 6 0
BBX 5 5 0 -1
BITMAP
9000
9000
9000
9000
6800
ENDCHAR
STARTCHAR v
ENCODING -1 118
SWIDTH 0 0
DWIDTH 6 0
BBX 6 5 -1 -1
BITMAP
ec00
4800
2800
3000
1000
ENDCHAR
STARTCHAR w
ENCODING -1 119
SWIDTH 0 0
DWIDTH 9 0
BBX 9 5 -1 -1
BITMAP
ed80
4900
5a00
2400
2400
ENDCHAR
STARTCHAR x
ENCODING -1 120
SWIDTH 0 0
DWIDTH 6 0
BBX 5 5 0 -1
BITMAP
d800
5000
2000
5000
d800
ENDCHAR
STARTCHAR y
ENCODING -1 121
SWIDTH 0 0
DWIDTH 6 0
BBX 6 7 -1 -3
BITMAP
dc00
4800
5000
3000
2000
2000
c000
ENDCHAR
STARTCHAR z
ENCODING -1 122
SWIDTH 0 0
DWIDTH 5 0
BBX 4 5 0 -1
BITMAP
f000
2000
4000
9000
f000
ENDCHAR
STARTCHAR {
ENCODING -1 123
SWIDTH 0 0
DWIDTH 4 0
BBX 3 9 0 -3
BITMAP
2000
4000
4000
4000
8000
4000
4000
4000
2000
ENDCHAR
STARTCHAR |
ENCODING -1 124
SWIDTH 0 0
DWIDTH 2 0
BBX 1 9 0 -3
BITMAP
8000
8000
8000
8000
8000
8000
8000
8000
8000
ENDCHAR
STARTCHAR }
ENCODING -1 125
SWIDTH 0 0
DWIDTH 4 0
BBX 3 9 0 -3
BITMAP
8000
4000
4000
4000
2000
4000
4000
4000
8000
ENDCHAR
STARTCHAR ~
ENCODING -1 126
SWIDTH 0 0
DWIDTH 7 0
BBX 6 2 0 1
BITMAP
6400
9800
ENDCHAR
ENDFONT
